<svg width="155" height="38" fill="none" xmlns="http://www.w3.org/2000/svg"><g clip-path="url('#clip0_3_96')"><mask id="mask0_3_96" style="mask-type:luminance" maskUnits="userSpaceOnUse" x="0" y="0" width="155" height="38"><path d="M155 0H0v37.703h155V0Z" fill="#fff"/></mask><g mask="url('#mask0_3_96')" fill="#fff"><path d="m.093 27.723 5.541-4.245c2.944 3.842 6.072 5.613 9.554 5.613 3.463 0 6.502-1.75 9.314-5.562l5.62 4.142c-4.056 5.498-9.097 8.402-14.934 8.402-5.819 0-10.908-2.886-15.095-8.35ZM15.17 9.271l-9.864 8.5-4.559-5.288L15.19.036l14.33 12.456-4.58 5.27-9.77-8.491ZM51.373 30.83c-3.368 0-6.175-1.092-8.45-3.275-2.277-2.213-3.399-5.05-3.399-8.513 0-3.491 1.152-6.361 3.429-8.607 2.308-2.276 5.115-3.398 8.452-3.398 4.117 0 7.764 1.776 9.887 4.552l-3.715 3.899c-1.778-1.904-3.712-2.87-5.8-2.87-1.777 0-3.244.591-4.46 1.809-1.185 1.217-1.776 2.746-1.776 4.584 0 1.778.59 3.275 1.775 4.492 1.217 1.185 2.684 1.776 4.43 1.776 2.275 0 4.272-.999 5.925-2.963l3.868 3.712c-1.062 1.404-2.495 2.558-4.273 3.46-1.778.906-3.743 1.341-5.895 1.341h.002Zm16.71-24.137v23.794h-5.488V6.693h5.488Zm5.202 5.05c-1.839 0-3.18-1.34-3.18-3.18 0-1.777 1.404-3.118 3.18-3.118 1.778 0 3.15 1.34 3.15 3.119 0 1.838-1.372 3.181-3.15 3.181v-.002Zm2.776 1.53v17.214h-5.52V13.272h5.52Zm10.566 17.59c-2.713 0-4.896-.843-6.61-2.528-1.684-1.683-2.527-3.836-2.527-6.487 0-2.65.843-4.801 2.558-6.486 1.715-1.685 3.928-2.525 6.672-2.525 3.587 0 6.738 1.745 8.202 5.02l-4.397 2.309c-.872-1.467-2.09-2.216-3.679-2.216-1.154 0-2.09.375-2.84 1.124a3.889 3.889 0 0 0-1.09 2.774c0 2.276 1.651 3.961 3.867 3.961 1.59 0 3.056-.872 3.68-2.213l4.398 2.618c-1.499 2.87-4.585 4.648-8.234 4.648Zm27.377-.376h-6.552l-5.085-6.83-.81.749v6.081h-5.486V6.693h5.488v11.569l5.176-4.99h6.705l-7.389 6.924 7.953 10.291Zm.367-8.95V7.44h5.863v14.003c0 2.588 1.496 3.836 3.649 3.836 2.12 0 3.617-1.31 3.617-3.836V7.44h5.895v14.096c0 6.799-4.711 9.356-9.512 9.356-4.771 0-9.512-2.557-9.512-9.355Zm32.052-8.7c2.465 0 4.462.873 6.051 2.618 1.59 1.715 2.369 3.868 2.369 6.393 0 2.528-.809 4.678-2.399 6.456-1.592 1.746-3.586 2.62-5.988 2.62-1.904 0-3.556-.623-4.897-1.87v8.513h-5.52V13.272h5.427v1.592c1.341-1.343 2.993-2.027 4.957-2.027Zm2.807 9.074c0-2.246-1.62-3.961-3.866-3.961s-3.898 1.715-3.898 3.961c0 1.092.372 2.027 1.092 2.807.747.78 1.682 1.154 2.806 1.154 1.122 0 2.058-.374 2.774-1.154a4.008 4.008 0 0 0 1.094-2.807h-.002Z"/></g></g><defs><clipPath id="clip0_3_96"><path fill="#fff" d="M0 0h155v38H0z"/></clipPath></defs></svg>