<svg width="417" height="25" viewBox="0 0 417 25" fill="none" xmlns="http://www.w3.org/2000/svg">
<path d="M416.142 5.20714C415.436 5.57626 414.681 5.83022 413.885 5.94539C414.697 5.3638 415.318 4.44385 415.614 3.34791C414.852 3.87728 414.01 4.26072 413.114 4.47747C412.399 3.56467 411.378 2.99023 410.245 2.99023C408.072 2.99023 406.312 5.09125 406.312 7.68086C406.312 8.05356 406.349 8.41124 406.415 8.75032C403.147 8.5679 400.249 6.69366 398.312 3.86226C397.971 4.55187 397.778 5.35307 397.778 6.2251C397.778 7.85683 398.474 9.28756 399.526 10.1288C398.882 10.1066 398.277 9.89418 397.747 9.54437V9.60088C397.747 11.8764 399.101 13.7736 400.899 14.2057C400.571 14.3094 400.221 14.3695 399.866 14.3695C399.614 14.3695 399.373 14.3402 399.132 14.2872C399.638 16.15 401.086 17.5063 402.812 17.5471C401.47 18.8026 399.769 19.5508 397.937 19.5508C397.624 19.5508 397.313 19.533 397 19.4879C398.748 20.8185 400.812 21.5968 403.041 21.5968C410.272 21.5968 414.224 14.4467 414.224 8.25458C414.224 8.05714 414.224 7.85612 414.212 7.65439C414.983 6.9984 415.651 6.16715 416.178 5.22502L416.142 5.20714Z" fill="white"/>
<path d="M280.629 6.81866C280.391 5.8096 279.731 5.0182 278.882 4.73845C277.319 4.23953 271.033 4.23953 271.033 4.23953C271.033 4.23953 264.76 4.22756 263.18 4.73845C262.335 5.01895 261.673 5.8096 261.437 6.81866C261.141 8.73132 260.993 10.6672 261 12.612C260.997 14.5441 261.144 16.477 261.437 18.3776C261.673 19.3867 262.335 20.1781 263.18 20.4623C264.743 20.9613 271.033 20.9613 271.033 20.9613C271.033 20.9613 277.303 20.9613 278.882 20.4623C279.731 20.1781 280.391 19.3875 280.629 18.3776C280.916 16.477 281.057 14.5441 281.047 12.612C281.057 10.6672 280.92 8.73132 280.629 6.81866ZM269.025 16.1927V9.01556L274.257 12.612L269.025 16.1927Z" fill="white"/>
<path d="M136.265 1.74121C133.746 1.74121 133.432 1.75573 132.447 1.8055C131.457 1.86356 130.787 2.04674 130.197 2.32048C129.587 2.60527 129.069 2.98338 128.556 3.5986C128.04 4.21035 127.72 4.82971 127.485 5.5569C127.256 6.26198 127.103 7.06106 127.054 8.2424C127.009 9.4196 127 9.79357 127 12.7998C127 15.806 127.012 16.1807 127.054 17.3572C127.103 18.5351 127.256 19.3376 127.485 20.0427C127.724 20.7699 128.041 21.3893 128.556 22.001C129.069 22.6169 129.587 22.9985 130.197 23.2791C130.787 23.5494 131.46 23.736 132.447 23.7941C133.433 23.8473 133.746 23.8584 136.265 23.8584C138.783 23.8584 139.097 23.8439 140.083 23.7941C141.07 23.736 141.742 23.5487 142.333 23.2791C142.942 22.9943 143.461 22.6162 143.973 22.001C144.489 21.3893 144.809 20.7734 145.044 20.0427C145.271 19.3376 145.427 18.5351 145.476 17.3572C145.52 16.18 145.529 15.806 145.529 12.7998C145.529 9.79357 145.517 9.41891 145.476 8.2424C145.427 7.06452 145.27 6.25783 145.044 5.5569C144.806 4.82971 144.489 4.21035 143.973 3.5986C143.461 2.98269 142.945 2.60112 142.333 2.32048C141.742 2.04674 141.07 1.86356 140.083 1.8055C139.097 1.75227 138.783 1.74121 136.265 1.74121ZM136.265 3.73201C138.738 3.73201 139.033 3.74652 140.011 3.79629C140.913 3.84675 141.404 4.02648 141.73 4.17855C142.165 4.37971 142.469 4.6175 142.798 5.00598C143.12 5.391 143.32 5.75806 143.488 6.27718C143.615 6.66636 143.766 7.25254 143.808 8.32881C143.85 9.49564 143.862 9.84886 143.862 12.8005C143.862 15.7521 143.85 16.1054 143.805 17.2722C143.756 18.3485 143.606 18.9346 143.479 19.3238C143.303 19.8429 143.108 20.2058 142.784 20.5985C142.458 20.9835 142.148 21.2213 141.717 21.4224C141.395 21.5745 140.896 21.7542 139.991 21.8047C139.009 21.8545 138.719 21.869 136.239 21.869C133.759 21.869 133.47 21.8545 132.487 21.8006C131.585 21.7425 131.087 21.5628 130.761 21.4114C130.321 21.2019 130.02 20.9683 129.696 20.5826C129.37 20.1934 129.163 19.8229 129.003 19.3079C128.873 18.9236 128.725 18.3291 128.677 17.2487C128.644 16.0895 128.628 15.73 128.628 12.7839C128.628 9.83919 128.644 9.47905 128.677 8.30531C128.725 7.22489 128.873 6.63179 129.003 6.24608C129.163 5.72004 129.371 5.36059 129.696 4.97142C130.019 4.58639 130.321 4.33754 130.761 4.14261C131.087 3.99122 131.573 3.8115 132.478 3.75758C133.461 3.71542 133.75 3.70021 136.226 3.70021L136.265 3.73201ZM136.265 7.12396C133.635 7.12396 131.508 9.66568 131.508 12.8012C131.508 15.9401 133.638 18.4784 136.265 18.4784C138.894 18.4784 141.021 15.9367 141.021 12.8012C141.021 9.66223 138.892 7.12396 136.265 7.12396ZM136.265 16.4876C134.557 16.4876 133.176 14.839 133.176 12.8012C133.176 10.7634 134.557 9.11476 136.265 9.11476C137.972 9.11476 139.353 10.7634 139.353 12.8012C139.353 14.839 137.972 16.4876 136.265 16.4876ZM142.325 6.89723C142.325 7.63203 141.824 8.22512 141.211 8.22512C140.595 8.22512 140.098 7.63134 140.098 6.89723C140.098 6.16658 140.599 5.57211 141.211 5.57211C141.823 5.57211 142.325 6.16658 142.325 6.89723Z" fill="white"/>
<path d="M10.3891 13.7613L10.9658 9.49192H7.36095V6.72137C7.36095 5.55359 7.86435 4.41455 9.479 4.41455H11.1176V0.77996C11.1176 0.77996 9.6308 0.491699 8.20882 0.491699C5.2403 0.491699 3.3 2.5368 3.3 6.23848V9.49266H0V13.762H3.3V24.0834H7.36095V13.762L10.3891 13.7613Z" fill="white"/>
</svg>
